<svg id="Layer_1" data-name="Layer 1" xmlns="http://www.w3.org/2000/svg" viewBox="0 0 29.53 31.35"><defs><style>.cls-1{fill:none;stroke:#fff;stroke-miterlimit:10;stroke-width:3px;}.cls-2{fill:#fff;}</style></defs><title>bellicon</title><path class="cls-1" d="M372.75,298.54a3,3,0,0,0-1.13-2,6.31,6.31,0,0,1-2.52-4c-.33-2.79.45-12.76-7.71-13.93h0a1.84,1.84,0,0,1,.07-.78h0a2.09,2.09,0,0,0,.12-.72,2.14,2.14,0,1,0-4.13.76,1.77,1.77,0,0,1,.07.78c-8.06,1.23-7.29,11.13-7.61,13.91a6.39,6.39,0,0,1-2.52,4,2.93,2.93,0,0,0-1.13,2c-.21,2.1,2.22,1.88,2.22,1.88h22S373,300.64,372.75,298.54Z" transform="translate(-344.73 -273.44)"/><path class="cls-2" d="M359.5,304.79a3.63,3.63,0,0,0,3.58-3h-7.17A3.64,3.64,0,0,0,359.5,304.79Z" transform="translate(-344.73 -273.44)"/></svg>