<svg id="Layer_1" data-name="Layer 1" xmlns="http://www.w3.org/2000/svg" viewBox="0 0 158.28 152.99"><defs><style>.cls-1{fill:#fff;}</style></defs><title>eur</title><path class="cls-1" d="M446.31,424.9a52.93,52.93,0,0,1-22.06,4.51A52.08,52.08,0,0,1,398.52,423a45.41,45.41,0,0,1-17.9-17.75,48.06,48.06,0,0,1-4.13-9.88h62.58l8-13.47H374.36c0-.84-.07-1.67-.07-2.52a55.6,55.6,0,0,1,.52-7.72h64.25l8-13.47H378.7a48.59,48.59,0,0,1,9.88-14q14.3-14.28,35.18-14.27,24.72,0,44.52,20.91l19.39-18.49a84,84,0,0,0-63.48-29.26,79.68,79.68,0,0,0-39.56,10.3q-18.36,10.31-28.22,27.23a70.59,70.59,0,0,0-7.22,17.58H337.41l-8,13.47h17.53c-.22,2.51-.36,5.05-.36,7.67,0,.87,0,1.71.05,2.57h-9.2l-8,13.47h18.52a71.4,71.4,0,0,0,20.29,39.17q21.63,21.54,55.6,21.53,18.42,0,32.78-6.09t30.49-21.84l-18.79-19.62Q456.31,420.39,446.31,424.9Z" transform="translate(-329.39 -303.05)"/></svg>