<svg id="Layer_1" data-name="Layer 1" xmlns="http://www.w3.org/2000/svg" viewBox="0 0 104.08 154.56"><defs><style>.cls-1{fill:#fff;}</style></defs><title>bgp</title><path class="cls-1" d="M357.25,429.6l2.57-1.4a39.28,39.28,0,0,0,7.56-5.26,29.71,29.71,0,0,0,5.31-6.3c2.86-4.59,4.32-11.25,4.32-19.79a41.9,41.9,0,0,0-.59-6.85H357.25V366.49h12.87c-2.18-8.13-3.24-14.65-3.24-19.81a46.46,46.46,0,0,1,3.48-18.3,39.61,39.61,0,0,1,9.95-14,43.5,43.5,0,0,1,15.11-8.75,57.82,57.82,0,0,1,18.83-3,56.86,56.86,0,0,1,17.31,2.56,43.7,43.7,0,0,1,14.38,7.66,38.85,38.85,0,0,1,10.1,12.7,46.26,46.26,0,0,1,4.56,17.06L461,348H433l-.39-4.51c-1-11.81-6.74-17.08-18.61-17.08a20.34,20.34,0,0,0-7.93,1.49,17.79,17.79,0,0,0-6,4,18.31,18.31,0,0,0-3.83,6,19.67,19.67,0,0,0-1.37,7.25c0,5.68,1.3,12.88,3.87,21.43H429.3V390H404.44a24.9,24.9,0,0,1,.23,3.4c0,8.75-1.46,16.19-4.34,22.11a37.62,37.62,0,0,1-3.57,5.91,51.21,51.21,0,0,1,6,.5c2.34.32,4.84.72,7.52,1.2l8,1.47c2.76.52,5.34,1,7.75,1.49s4.42.83,6.23,1.13a21.89,21.89,0,0,0,3.42.39,39.67,39.67,0,0,0,18.4-4.71l7.18-3.73v29.18l-2.87,1.32a52.48,52.48,0,0,1-21.9,4.69c-5.21,0-12.48-1.46-22.23-4.47-8.62-2.68-15-4-19-4-9.35,0-19.79,2.7-31,8l-7,3.33Z" transform="translate(-357.25 -302.65)"/></svg>