<svg id="Layer_1" data-name="Layer 1" xmlns="http://www.w3.org/2000/svg" viewBox="0 0 38 29.85"><defs><style>.cls-1{fill:#fff;}</style></defs><title>mailicon</title><path class="cls-1" d="M85.69,226.57h-27a5.49,5.49,0,0,0-5.49,5.49v18.88a5.49,5.49,0,0,0,5.49,5.48h27a5.5,5.5,0,0,0,5.49-5.48V232.06A5.5,5.5,0,0,0,85.69,226.57Zm0,2.62a2.82,2.82,0,0,1,.65.08l-11.4,12.94a3.68,3.68,0,0,1-5.53,0L58,229.27a2.75,2.75,0,0,1,.65-.08Zm2.86,21.75a2.86,2.86,0,0,1-2.86,2.86h-27a2.87,2.87,0,0,1-2.87-2.86V232.06A2.83,2.83,0,0,1,56,231l11.43,13a6.3,6.3,0,0,0,9.46,0l11.44-13a2.82,2.82,0,0,1,.21,1.09Z" transform="translate(-53.17 -226.57)"/></svg>