<svg id="Layer_1" data-name="Layer 1" xmlns="http://www.w3.org/2000/svg" viewBox="0 0 107.91 154.55"><defs><style>.cls-1{fill:#fff;}</style></defs><title>usd</title><path class="cls-1" d="M402.33,456.69V441.9q-22.36-.87-34.59-12t-12.4-30.68h32q.52,9.92,3.92,14.27t10.44,4.61l.09-28.71q-23.67-5.22-34.2-14.32T357.08,351q0-16.71,12.57-26.94t33.9-10.66V302.15h13.92V313.2q20.36.53,31.76,10.49t12.1,27.8H430.87q-.44-7.67-3.87-11.66t-9.88-4.18V362q25.15,6,35.63,15.36t10.49,25.28q0,18.43-11.88,28.23t-35.72,11.18v14.62ZM404.41,359V335.3h-.69q-7.58,0-11.36,2.87t-3.78,8.71a8.66,8.66,0,0,0,3.52,7.17Q395.63,356.79,404.41,359Zm10.36,59.17q8.36,0,12.66-3t4.31-8.78a9.87,9.87,0,0,0-3.66-8q-3.65-3-13.31-5.7Z" transform="translate(-355.34 -302.15)"/></svg>